<?xml version="1.0" standalone="no"?>
<!DOCTYPE svg PUBLIC "-//W3C//DTD SVG 20010904//EN"
 "http://www.w3.org/TR/2001/REC-SVG-20010904/DTD/svg10.dtd">
<svg version="1.0" xmlns="http://www.w3.org/2000/svg"
 width="797.000000pt" height="852.000000pt" viewBox="0 0 797.000000 852.000000"
 preserveAspectRatio="xMidYMid meet">

<g transform="translate(0.000000,852.000000) scale(0.100000,-0.100000)"
fill="#000000" stroke="none">
<path d="M4114 8238 c-18 -4 -67 -40 -110 -80 -44 -39 -128 -115 -189 -168
-60 -53 -151 -135 -201 -181 -49 -46 -135 -124 -190 -173 -54 -49 -168 -156
-251 -239 l-153 -150 0 -51 c0 -57 33 -139 70 -171 18 -17 36 -20 106 -20 l83
0 193 196 c106 108 249 255 318 326 117 122 331 327 335 321 19 -32 139 -162
203 -223 47 -44 144 -147 216 -230 155 -179 330 -349 380 -370 51 -22 141 -19
180 4 62 39 88 130 55 193 -8 15 -82 96 -164 180 -83 84 -216 227 -295 318
-127 145 -450 473 -498 505 -26 18 -54 22 -88 13z"/>
<path d="M6390 8116 c-139 -39 -253 -133 -317 -264 -26 -54 -28 -65 -28 -187
0 -112 3 -136 21 -175 49 -104 137 -193 243 -246 52 -27 64 -29 166 -28 61 1
130 7 154 13 132 37 238 124 301 247 33 65 35 75 38 183 4 113 4 114 -32 185
-63 129 -172 228 -294 268 -64 21 -183 23 -252 4z m219 -299 c74 -49 98 -132
64 -219 -22 -58 -47 -84 -100 -104 -42 -16 -48 -16 -99 0 -71 22 -115 62 -137
124 -30 82 -3 149 82 204 39 25 53 29 98 25 34 -2 65 -13 92 -30z"/>
<path d="M4139 7393 c-64 -54 -75 -126 -61 -414 11 -214 16 -234 76 -287 60
-52 118 -50 170 7 31 34 40 150 30 395 l-9 218 -45 40 c-39 35 -98 68 -120 68
-5 0 -23 -12 -41 -27z"/>
<path d="M1717 7371 c-58 -38 -62 -52 -65 -232 l-4 -167 -151 -4 c-90 -2 -161
-9 -174 -16 -40 -22 -63 -74 -63 -142 0 -61 1 -64 45 -108 l45 -45 153 6 153
5 0 -142 c0 -131 2 -146 23 -179 35 -57 67 -77 122 -77 37 0 54 6 80 27 49 42
59 77 59 213 0 67 5 130 10 141 9 16 22 19 95 19 167 0 239 35 265 131 11 40
10 48 -11 89 -36 68 -68 80 -221 80 l-126 0 -4 158 c-2 133 -6 162 -22 189
-40 66 -148 94 -209 54z"/>
<path d="M5963 7303 c-18 -10 -83 -66 -145 -124 -62 -58 -142 -130 -178 -160
-36 -29 -115 -101 -176 -159 -61 -58 -180 -168 -265 -245 -84 -77 -196 -181
-249 -230 -52 -50 -152 -141 -221 -203 -70 -61 -150 -138 -179 -169 -53 -59
-84 -82 -109 -83 -8 0 -32 19 -55 43 -23 23 -82 78 -131 121 -117 103 -246
228 -315 306 -53 59 -256 229 -323 270 -62 39 -61 40 -352 -247 -252 -250
-464 -449 -730 -689 -143 -129 -312 -288 -350 -328 -16 -18 -106 -102 -200
-186 -167 -152 -359 -331 -685 -640 -225 -213 -444 -412 -515 -466 -80 -61
-96 -138 -46 -215 59 -89 132 -115 211 -74 19 10 100 84 180 164 226 228 437
430 530 508 47 39 146 129 220 200 74 70 187 173 250 228 63 54 147 129 185
165 295 280 420 394 525 481 30 26 112 102 181 170 70 68 210 202 312 298 103
95 202 192 220 214 l34 41 84 -74 c46 -41 138 -127 204 -191 66 -64 154 -142
195 -173 102 -77 154 -128 196 -192 96 -144 143 -140 326 27 46 42 128 111
183 154 55 43 143 119 195 169 53 50 122 113 155 141 33 27 107 90 165 140 58
50 128 108 155 130 122 97 606 563 661 636 54 73 43 116 -53 219 -41 45 -46
47 -90 23z"/>
<path d="M6455 6771 c-22 -10 -51 -31 -65 -46 l-25 -27 3 -2963 3 -2963 -273
-7 c-150 -3 -327 -5 -393 -3 l-120 3 0 2495 c0 1372 -4 2502 -8 2512 -8 16
-97 79 -128 90 -33 12 -101 -15 -144 -56 l-42 -41 -7 -150 c-3 -82 -6 -1205
-6 -2495 l1 -2345 -263 -7 c-145 -4 -326 -6 -403 -5 l-140 2 -6 370 c-4 204
-7 1185 -6 2180 0 2030 7 1861 -75 1909 -23 14 -62 28 -85 32 -35 5 -50 2 -97
-25 -31 -18 -58 -36 -61 -41 -3 -5 -7 -1002 -8 -2215 l-2 -2205 -185 0 c-102
-1 -280 -3 -396 -6 l-212 -5 -6 48 c-4 26 -5 1012 -4 2190 l3 2142 -35 36
c-40 42 -105 75 -145 75 -37 0 -108 -42 -135 -80 l-22 -31 4 -2184 3 -2185
-125 0 c-69 0 -250 -3 -403 -6 l-277 -6 -2 118 c-1 66 -2 824 -2 1686 l-1
1567 -35 36 c-41 42 -88 65 -137 65 -73 0 -143 -63 -153 -138 -3 -26 -6 -786
-5 -1687 l1 -1640 -288 -3 c-222 -3 -288 -1 -288 8 0 9 -4 9 -12 2 -7 -5 -53
-12 -102 -13 l-89 -4 -3 1275 c-4 1218 -5 1276 -23 1300 -69 95 -232 91 -293
-8 l-21 -33 4 -1262 4 -1262 -140 -6 c-180 -8 -241 -25 -289 -81 -43 -50 -54
-94 -32 -136 22 -42 70 -80 113 -88 20 -4 199 -4 397 0 199 4 1773 7 3498 7
l3136 0 33 22 c51 34 81 85 73 122 -15 75 -90 139 -176 151 -24 3 -178 7 -343
8 l-300 1 -1 2952 c-2 2862 -3 2954 -21 2985 -21 37 -111 88 -152 87 -14 0
-44 -9 -66 -18z"/>
<path d="M1171 5884 c-132 -66 -141 -214 -20 -318 78 -66 149 -57 235 29 91
91 95 178 12 250 -38 32 -117 65 -158 65 -9 0 -40 -12 -69 -26z"/>
<path d="M7178 5712 c-62 -41 -95 -121 -76 -188 25 -92 115 -138 212 -109 169
51 183 233 24 300 -50 20 -126 19 -160 -3z"/>
<path d="M4440 5540 c0 -5 5 -10 10 -10 6 0 10 5 10 10 0 6 -4 10 -10 10 -5 0
-10 -4 -10 -10z"/>
</g>
</svg>
